<svg width="2789" height="2735" viewBox="0 0 2789 2735" fill="none" xmlns="http://www.w3.org/2000/svg">
<path opacity="0.54" d="M309.842 1147.7C305.705 1078.89 374.056 1022.56 442.705 1016.56C511.373 1010.53 577.642 1041.63 637.053 1076.65C696.482 1111.63 754.662 1151.98 821.784 1167.67C960.71 1200.12 1099 1120.86 1217.55 1041.64C1336.1 962.419 1466.86 876.101 1608.53 892.989C1719.61 906.246 1812.39 980.928 1915.78 1023.66C2096.26 1098.26 2315.89 1068.03 2469.33 947.384" stroke="url(#paint0_linear_1_707)" stroke-width="1.56225" stroke-miterlimit="10"/>
<path opacity="0.54" d="M306.73 1166.04C302.54 1097.31 370.309 1040.81 438.747 1034.1C444.861 1033.48 450.975 1033.21 457.062 1033.15C519.046 1032.82 578.931 1060.66 633.22 1091.82C643.704 1097.84 654.153 1104.02 664.601 1110.2C713.652 1139.24 763.091 1168.39 818.411 1181.01C836.334 1185.12 854.276 1187.36 872.149 1187.99C992.724 1192.3 1110.51 1123.04 1213.09 1053.34C1220.54 1048.26 1228.04 1043.18 1235.57 1038.08C1347.18 962.672 1468.37 888.202 1599.83 898.908C1637.43 901.975 1673.54 910.976 1708.97 925.25C1750.8 942.083 1790.82 965.739 1830.35 988.53C1857.34 1004.09 1884.26 1019.29 1912.13 1032.15C1925.24 1038.19 1938.6 1043.68 1952.2 1048.57C2038.83 1079.75 2135.06 1086.18 2226.68 1069.69C2318.52 1053.15 2405.85 1014.05 2478.67 955.731" stroke="url(#paint1_linear_1_707)" stroke-width="1.56225" stroke-miterlimit="10"/>
<path opacity="0.54" d="M303.617 1184.38C299.365 1115.69 366.534 1059.06 434.761 1051.63C440.866 1050.97 446.963 1050.61 453.041 1050.5C514.876 1049.54 574.876 1076.57 629.413 1107.03C639.941 1112.92 650.407 1118.96 660.9 1125.01C710.128 1153.45 759.743 1182.1 815.046 1194.41C832.969 1198.4 850.902 1200.59 868.784 1201.15C989.404 1205 1106.77 1135.5 1208.67 1065.11C1216.07 1060 1223.53 1054.85 1230.99 1049.7C1341.7 973.505 1461.04 899.172 1591.2 904.955C1629.23 906.63 1666.25 913.295 1702.9 927.121C1746.21 943.453 1787.25 968.672 1826.88 993.21C1853.92 1009.95 1880.65 1026.52 1908.49 1040.69C1921.6 1047.35 1934.94 1053.44 1948.67 1058.91C2035.96 1093.71 2135.73 1101.32 2229.99 1083.87C2324.44 1066.4 2413.62 1024.71 2488.01 964.038" stroke="url(#paint2_linear_1_707)" stroke-width="1.56225" stroke-miterlimit="10"/>
<path opacity="0.54" d="M300.476 1202.7C296.171 1134.09 362.732 1077.28 430.757 1069.18C436.827 1068.46 442.906 1068.01 448.975 1067.86C510.704 1066.26 570.794 1092.47 625.561 1122.23C636.107 1127.98 646.661 1133.89 657.172 1139.81C706.576 1167.63 756.342 1195.78 811.654 1207.78C829.56 1211.68 847.475 1213.79 865.348 1214.3C985.969 1217.69 1102.95 1147.97 1204.18 1076.87C1211.54 1071.69 1218.92 1066.49 1226.32 1061.31C1336.17 984.298 1453.73 910.042 1582.48 910.945C1620.99 911.219 1658.87 915.584 1696.75 928.979C1741.56 944.785 1783.61 971.593 1823.31 997.904C1850.43 1015.84 1876.94 1033.79 1904.76 1049.25C1917.83 1056.54 1931.23 1063.23 1945.04 1069.25C2033.01 1107.68 2136.3 1116.5 2233.18 1098.09C2330.27 1079.66 2421.27 1035.41 2497.26 972.404" stroke="url(#paint3_linear_1_707)" stroke-width="1.56225" stroke-miterlimit="10"/>
<path opacity="0.54" d="M297.347 1221.06C293.006 1152.5 358.967 1095.57 426.755 1086.73C432.834 1085.94 438.86 1085.45 444.912 1085.22C506.509 1082.95 566.696 1108.39 621.693 1137.46C632.301 1143.06 642.856 1148.86 653.437 1154.67C703.019 1181.89 752.979 1209.51 808.283 1221.24C826.188 1225.03 844.095 1227.09 861.95 1227.52C982.597 1230.46 1099.16 1160.47 1199.75 1088.7C1207.06 1083.49 1214.4 1078.23 1221.75 1072.97C1330.7 995.172 1446.59 920.79 1573.83 917.017C1612.81 915.845 1651.59 917.944 1690.68 930.919C1737.01 946.215 1780.04 974.595 1819.84 1002.65C1846.99 1021.8 1873.32 1041.08 1901.13 1057.88C1914.19 1065.76 1927.64 1073.07 1941.55 1079.69C2030.18 1121.77 2137.02 1131.74 2236.52 1112.4C2336.21 1093.04 2429.06 1046.2 2506.65 980.859" stroke="url(#paint4_linear_1_707)" stroke-width="1.56225" stroke-miterlimit="10"/>
<path opacity="0.54" d="M294.233 1239.4C289.813 1170.91 355.209 1113.78 422.768 1104.26C428.812 1103.4 434.847 1102.85 440.89 1102.57C502.356 1099.64 562.641 1124.3 617.885 1152.66C628.537 1158.14 639.136 1163.81 649.735 1169.48C699.494 1196.09 749.631 1223.22 804.917 1234.63C822.805 1238.33 840.694 1240.31 858.585 1240.68C979.277 1243.16 1095.4 1172.95 1195.32 1100.47C1202.6 1095.2 1209.85 1089.91 1217.16 1084.59C1325.22 1006 1439.49 931.346 1565.19 923.019C1604.7 920.41 1644.27 920.244 1684.59 932.744C1732.41 947.541 1776.46 977.483 1816.38 1007.3C1843.61 1027.65 1869.76 1048.3 1897.51 1066.39C1910.57 1074.9 1924 1082.8 1938.02 1090C2027.33 1135.7 2137.69 1146.88 2239.82 1126.58C2342.12 1106.25 2436.82 1056.86 2516.01 989.183" stroke="url(#paint5_linear_1_707)" stroke-width="1.56225" stroke-miterlimit="10"/>
<path opacity="0.54" d="M291.121 1257.74C286.666 1189.3 351.436 1132.02 418.81 1121.8C424.818 1120.89 430.862 1120.26 436.87 1119.92C498.213 1116.37 558.605 1140.19 614.035 1167.87C624.731 1173.22 635.365 1178.73 646.009 1184.27C695.927 1210.3 746.232 1236.89 801.527 1248.01C819.415 1251.59 837.313 1253.5 855.169 1253.81C975.888 1255.84 1091.62 1185.37 1190.85 1112.2C1198.07 1106.9 1205.28 1101.55 1212.51 1096.17C1319.69 1016.8 1432.44 941.732 1556.48 929.011C1596.52 924.921 1636.9 922.508 1678.45 934.604C1727.77 948.874 1772.83 980.405 1812.82 1012C1840.11 1033.53 1866.07 1055.55 1893.78 1074.95C1906.81 1084.08 1920.29 1092.6 1934.43 1100.36C2024.41 1149.69 2138.31 1162.05 2243.04 1140.82C2347.96 1119.56 2444.51 1067.58 2525.29 997.567" stroke="url(#paint6_linear_1_707)" stroke-width="1.56225" stroke-miterlimit="10"/>
<path opacity="0.54" d="M287.981 1276.07C283.447 1207.68 347.661 1150.26 414.78 1139.34C420.78 1138.38 426.788 1137.69 432.805 1137.28C494.016 1133.07 554.506 1156.11 610.184 1183.08C620.898 1188.29 631.603 1193.69 642.264 1199.09C692.385 1224.53 742.859 1250.58 798.119 1261.41C815.989 1264.9 833.896 1266.74 851.734 1266.96C972.48 1268.56 1087.79 1197.84 1186.36 1123.96C1193.52 1118.57 1200.68 1113.19 1207.86 1107.78C1314.14 1027.62 1425.37 951.96 1547.76 935.003C1588.38 929.379 1629.52 924.797 1672.33 936.437C1723.15 950.18 1769.21 983.3 1809.3 1016.64C1836.66 1039.37 1862.41 1062.74 1890.11 1083.47C1903.15 1093.22 1916.61 1102.33 1930.86 1110.67C2021.5 1163.66 2138.94 1177.19 2246.31 1155C2353.85 1132.78 2452.23 1078.24 2534.58 1005.88" stroke="url(#paint7_linear_1_707)" stroke-width="1.56225" stroke-miterlimit="10"/>
<path opacity="0.54" d="M284.853 1294.43C280.265 1226.13 343.871 1168.53 410.805 1156.91C416.787 1155.86 422.787 1155.13 428.769 1154.65C489.874 1149.8 550.426 1172 606.361 1198.3C617.137 1203.36 627.86 1208.62 638.565 1213.9C688.863 1238.73 739.514 1264.29 794.757 1274.8C812.636 1278.22 830.499 1279.95 848.354 1280.15C969.118 1281.26 1084.04 1210.32 1181.92 1135.75C1189.03 1130.33 1196.15 1124.88 1203.27 1119.39C1308.63 1038.43 1418.4 962.099 1539.11 941.029C1580.3 933.846 1622.23 927.113 1666.22 938.314C1718.52 951.556 1765.6 986.239 1805.79 1021.33C1833.2 1045.24 1858.74 1070 1886.41 1092.05C1899.43 1102.39 1912.93 1112.14 1927.26 1121.04C2018.58 1177.65 2139.53 1192.34 2249.53 1169.24C2359.69 1146.09 2459.93 1088.94 2543.87 1014.26" stroke="url(#paint8_linear_1_707)" stroke-width="1.56225" stroke-miterlimit="10"/>
<path opacity="0.54" d="M281.736 1312.77C277.087 1244.5 340.119 1186.79 406.816 1174.44C412.789 1173.35 418.771 1172.53 424.718 1171.99C485.674 1166.5 546.341 1187.9 602.506 1213.51C613.326 1218.45 624.093 1223.58 634.842 1228.74C685.318 1252.96 736.119 1278.01 791.371 1288.22C809.25 1291.53 827.104 1293.21 844.942 1293.32C965.733 1293.99 1080.24 1222.82 1177.48 1147.55C1184.53 1142.09 1191.59 1136.57 1198.66 1131.04C1303.13 1049.29 1411.45 972.101 1530.42 947.086C1572.2 938.299 1614.89 929.442 1660.12 940.212C1713.93 952.928 1762.03 989.174 1802.32 1026.05C1829.79 1051.19 1855.14 1077.27 1882.8 1100.65C1895.78 1111.63 1909.33 1121.98 1923.78 1131.45C2015.76 1191.71 2140.24 1207.59 2252.88 1183.53C2365.64 1159.45 2467.76 1099.72 2553.27 1022.7" stroke="url(#paint9_linear_1_707)" stroke-width="1.56225" stroke-miterlimit="10"/>
<path opacity="0.54" d="M278.625 1331.11C273.922 1262.92 336.364 1205 402.814 1191.99C408.752 1190.83 414.699 1189.95 420.681 1189.36C481.532 1183.23 542.288 1203.81 598.683 1228.74C609.521 1233.53 620.332 1238.54 631.125 1243.58C681.76 1267.22 732.773 1291.72 787.99 1301.63C805.852 1304.85 823.689 1306.45 841.536 1306.49C962.353 1306.72 1076.45 1235.31 1173.01 1159.32C1180.03 1153.8 1187.04 1148.24 1194.03 1142.66C1297.61 1060.13 1404.49 981.938 1521.74 953.093C1564.1 942.675 1607.54 931.747 1654.01 942.087C1709.31 954.276 1758.42 992.111 1798.79 1030.76C1826.34 1057.1 1851.48 1084.53 1879.09 1109.22C1892.09 1120.82 1905.62 1131.77 1920.18 1141.82C2012.84 1205.7 2140.86 1222.75 2256.12 1197.74C2371.52 1172.7 2475.46 1110.41 2562.57 1031.05" stroke="url(#paint10_linear_1_707)" stroke-width="1.56225" stroke-miterlimit="10"/>
<path opacity="0.54" d="M275.485 1349.43C270.721 1281.28 332.563 1223.23 398.829 1209.51C404.749 1208.27 410.687 1207.35 416.634 1206.69C477.353 1199.9 538.207 1219.7 594.805 1243.93C605.687 1248.6 616.56 1253.46 627.372 1258.35C678.183 1281.38 729.374 1305.39 784.6 1315.01C802.461 1318.11 820.289 1319.67 838.145 1319.63C959.007 1319.4 1072.66 1247.73 1168.57 1171.07C1175.53 1165.52 1182.48 1159.88 1189.43 1154.23C1292.12 1070.91 1397.52 991.619 1513.07 959.076C1556.02 946.983 1600.21 934.001 1647.9 943.893C1704.69 955.582 1754.82 994.98 1795.28 1035.38C1822.89 1062.89 1847.84 1091.69 1875.42 1117.7C1888.37 1129.92 1901.96 1141.49 1916.64 1152.1C2009.97 1219.61 2141.52 1237.84 2259.4 1211.9C2377.41 1185.93 2483.2 1121.05 2571.91 1039.36" stroke="url(#paint11_linear_1_707)" stroke-width="1.56225" stroke-miterlimit="10"/>
<path opacity="0.54" d="M272.355 1367.8C267.538 1299.72 328.797 1241.51 394.826 1227.07C400.737 1225.78 406.658 1224.77 412.613 1224.05C473.201 1216.59 534.17 1235.59 590.998 1259.12C601.942 1263.65 612.816 1268.39 623.671 1273.16C674.66 1295.59 726 1319.08 781.235 1328.4C799.08 1331.42 816.934 1332.87 834.755 1332.78C955.643 1332.1 1068.89 1260.19 1164.12 1182.82C1171.05 1177.21 1177.94 1171.53 1184.81 1165.83C1286.63 1081.7 1390.52 1001.17 1504.4 965.06C1547.95 951.266 1592.9 936.301 1641.81 945.745C1700.09 956.907 1751.22 997.894 1791.81 1040.05C1819.49 1068.77 1844.24 1098.96 1871.8 1126.26C1884.77 1139.1 1898.36 1151.28 1913.13 1162.45C2007.11 1233.62 2142.21 1253.02 2262.71 1226.12C2383.35 1199.2 2490.97 1131.75 2581.25 1047.71" stroke="url(#paint12_linear_1_707)" stroke-width="1.56225" stroke-miterlimit="10"/>
<path opacity="0.54" d="M269.24 1386.14C264.361 1318.1 325.021 1259.76 390.865 1244.61C396.741 1243.27 402.653 1242.21 408.591 1241.4C469.056 1233.33 530.114 1251.51 587.172 1274.35C598.16 1278.75 609.069 1283.33 619.951 1288C671.117 1309.82 722.652 1332.79 777.852 1341.82C795.678 1344.75 813.515 1346.12 831.345 1345.95C952.234 1344.81 1065.11 1272.66 1159.65 1194.6C1166.5 1188.93 1173.36 1183.19 1180.18 1177.46C1281.11 1092.54 1383.47 1010.68 1495.73 971.116C1539.84 955.559 1585.56 938.628 1635.72 947.643C1695.5 958.278 1747.64 1000.85 1788.3 1044.79C1816.02 1074.71 1840.6 1106.25 1868.12 1134.86C1881.07 1148.29 1894.69 1161.07 1909.55 1172.84C2004.22 1247.63 2142.84 1268.21 2265.96 1240.38C2389.21 1212.53 2498.68 1142.49 2590.56 1056.11" stroke="url(#paint13_linear_1_707)" stroke-width="1.56225" stroke-miterlimit="10"/>
<path opacity="0.54" d="M266.103 1404.46C261.171 1336.5 321.222 1277.98 386.837 1262.15C392.678 1260.74 398.599 1259.61 404.501 1258.74C464.834 1250 526.008 1267.38 583.296 1289.54C594.302 1293.8 605.281 1298.27 616.225 1302.79C667.577 1324.04 719.28 1346.48 774.463 1355.19C792.29 1358 810.118 1359.33 827.938 1359.12C948.854 1357.54 1061.31 1285.15 1155.21 1206.39C1162.03 1200.66 1168.84 1194.88 1175.57 1189.1C1275.61 1103.39 1376.45 1020.1 1487.07 977.14C1531.77 959.793 1578.23 940.95 1629.6 949.517C1690.87 959.651 1744 1003.77 1784.79 1049.47C1812.59 1080.59 1836.95 1113.48 1864.46 1143.42C1877.38 1157.48 1891.05 1170.86 1906.02 1183.21C2001.36 1261.62 2143.51 1283.42 2269.26 1254.63C2395.14 1225.81 2506.43 1153.22 2599.91 1064.5" stroke="url(#paint14_linear_1_707)" stroke-width="1.56225" stroke-miterlimit="10"/>
<path opacity="0.54" d="M262.99 1422.8C257.996 1354.87 317.474 1296.24 382.851 1279.67C388.702 1278.19 394.587 1277 400.481 1276.09C460.709 1266.71 521.954 1283.29 579.463 1304.72C590.513 1308.86 601.51 1313.19 612.498 1317.59C664.027 1338.23 715.88 1360.16 771.072 1368.56C788.881 1371.29 806.692 1372.53 824.521 1372.25C945.482 1370.2 1057.53 1297.57 1150.74 1218.12C1157.5 1212.36 1164.23 1206.53 1170.95 1200.66C1270.1 1114.16 1369.34 1029.3 1478.37 983.106C1523.6 963.935 1570.88 943.188 1623.5 951.324C1686.27 960.932 1740.4 1006.64 1781.28 1054.09C1809.13 1086.39 1833.31 1120.64 1860.79 1151.9C1873.71 1166.58 1887.36 1180.56 1902.45 1193.48C1998.45 1275.55 2144.15 1298.49 2272.51 1268.77C2401 1239.03 2514.14 1163.84 2609.22 1072.79" stroke="url(#paint15_linear_1_707)" stroke-width="1.56225" stroke-miterlimit="10"/>
<path opacity="0.54" d="M259.858 1441.16C254.811 1373.32 313.698 1314.48 378.873 1297.25C384.688 1295.7 390.538 1294.45 396.441 1293.46C456.537 1283.43 517.88 1299.23 575.619 1319.97C586.731 1323.96 597.772 1328.16 608.778 1332.42C660.484 1352.46 712.532 1373.87 767.689 1381.98C785.498 1384.59 803.3 1385.79 821.112 1385.42C942.099 1382.93 1053.73 1310.06 1146.27 1229.9C1153 1224.07 1159.68 1218.21 1166.31 1212.28C1264.57 1125 1362.2 1038.56 1469.68 989.116C1515.44 968.076 1563.55 945.514 1617.38 953.203C1681.65 962.284 1736.79 1009.58 1777.79 1058.79C1805.72 1092.3 1829.67 1127.92 1857.13 1160.46C1870.01 1175.77 1883.71 1190.36 1898.89 1203.84C1995.57 1289.53 2144.79 1313.68 2275.78 1283C2406.9 1252.3 2521.87 1174.55 2618.55 1081.17" stroke="url(#paint16_linear_1_707)" stroke-width="1.56225" stroke-miterlimit="10"/>
<path opacity="0.54" d="M256.743 1459.5C251.661 1391.71 309.922 1332.72 374.868 1314.8C380.675 1313.21 386.507 1311.87 392.401 1310.84C452.348 1300.17 513.824 1315.15 571.793 1335.2C582.949 1339.06 594.008 1343.13 605.058 1347.26C656.941 1366.69 709.166 1387.6 764.305 1395.4C782.097 1397.92 799.908 1399.05 817.728 1398.61C938.743 1395.68 1049.96 1322.57 1141.83 1241.69C1148.51 1235.83 1155.12 1229.89 1161.71 1223.93C1259.08 1135.86 1354.99 1047.74 1461.01 995.171C1507.27 972.218 1556.21 947.84 1611.25 955.107C1677 963.688 1733.16 1012.55 1774.24 1063.53C1802.22 1098.22 1825.98 1135.21 1853.43 1169.09C1866.32 1185.01 1880.03 1200.22 1895.33 1214.26C1992.66 1303.61 2145.43 1328.91 2279.04 1297.31C2412.77 1265.67 2529.59 1185.33 2627.83 1089.6" stroke="url(#paint17_linear_1_707)" stroke-width="1.56225" stroke-miterlimit="10"/>
<path opacity="0.54" d="M253.606 1477.82C248.444 1410.09 306.149 1350.96 370.885 1332.32C376.673 1330.65 382.497 1329.26 388.356 1328.17C448.197 1316.85 509.744 1331.04 567.943 1350.4C579.117 1354.12 590.265 1358.06 601.315 1362.08C653.375 1380.9 705.75 1401.3 760.925 1408.81C778.699 1411.25 796.51 1412.26 814.322 1411.78C935.355 1408.36 1046.18 1335.03 1137.37 1253.46C1144.01 1247.54 1150.57 1241.56 1157.08 1235.55C1253.55 1146.7 1347.77 1056.83 1452.32 1001.18C1499.07 976.294 1548.85 950.145 1605.15 956.956C1672.4 965.01 1729.58 1015.43 1770.74 1068.19C1798.78 1104.1 1822.37 1142.43 1849.74 1177.63C1862.62 1194.15 1876.34 1209.98 1891.75 1224.6C1989.78 1317.59 2146.05 1344.08 2282.3 1311.49C2418.65 1278.93 2537.31 1195.99 2637.15 1097.92" stroke="url(#paint18_linear_1_707)" stroke-width="1.56225" stroke-miterlimit="10"/>
<path opacity="0.54" d="M250.493 1496.16C245.296 1428.48 302.375 1369.2 366.899 1349.85C372.653 1348.11 378.468 1346.69 384.309 1345.5C444.018 1333.53 505.681 1346.91 564.11 1365.58C575.328 1369.18 586.494 1372.97 597.632 1376.86C649.851 1395.1 702.439 1414.96 757.596 1422.15C775.371 1424.47 793.173 1425.44 810.949 1424.89C932.009 1421.04 1042.39 1347.45 1132.96 1265.21C1139.52 1259.23 1146.08 1253.21 1152.55 1247.13C1248.14 1157.49 1340.55 1065.85 1443.72 1007.17C1490.91 980.321 1541.6 952.409 1599.12 958.816C1667.87 966.344 1726.06 1018.36 1767.32 1072.86C1795.44 1109.97 1818.81 1149.65 1846.15 1186.16C1859.01 1203.33 1872.76 1219.75 1888.28 1234.94C1986.99 1331.56 2146.79 1359.22 2285.66 1325.7C2424.63 1292.18 2545.15 1206.71 2646.57 1106.28" stroke="url(#paint19_linear_1_707)" stroke-width="1.56225" stroke-miterlimit="10"/>
<path opacity="0.54" d="M247.361 1514.53C242.085 1446.91 298.582 1387.47 362.895 1367.41C368.64 1365.63 374.437 1364.11 380.269 1362.88C439.856 1350.29 501.608 1362.85 560.258 1380.79C571.538 1384.24 582.73 1387.94 593.886 1391.69C646.282 1409.31 699.047 1428.68 754.187 1435.56C771.944 1437.79 789.728 1438.66 807.514 1438.05C928.6 1433.75 1038.59 1359.9 1128.47 1276.97C1135 1270.93 1141.47 1264.85 1147.89 1258.74C1242.56 1168.3 1333.15 1074.86 1434.99 1013.19C1482.61 984.376 1534.22 954.746 1592.95 960.661C1663.19 967.689 1722.4 1021.26 1763.76 1077.55C1791.93 1115.85 1815.12 1156.9 1842.44 1194.74C1855.29 1212.51 1869.07 1229.56 1884.68 1245.31C1984.05 1345.58 2147.39 1374.42 2288.88 1339.95C2430.47 1305.5 2552.85 1217.4 2655.85 1114.67" stroke="url(#paint20_linear_1_707)" stroke-width="1.56225" stroke-miterlimit="10"/>
<path opacity="0.54" d="M244.248 1532.87C238.936 1465.3 294.851 1405.7 358.917 1384.98C364.627 1383.13 370.433 1381.55 376.23 1380.26C435.685 1367 497.552 1378.76 556.415 1396.04C567.739 1399.37 578.966 1402.9 590.167 1406.52C642.766 1423.56 695.655 1442.39 750.804 1448.97C768.561 1451.09 786.337 1451.92 804.131 1451.24C925.262 1446.47 1034.82 1372.41 1124.03 1288.76C1130.5 1282.68 1136.94 1276.55 1143.28 1270.38C1237.08 1179.13 1325.76 1083.84 1426.33 1019.22C1474.35 988.375 1526.91 957.044 1586.86 962.555C1658.6 969.056 1718.81 1024.22 1760.27 1082.26C1788.52 1121.75 1811.48 1164.18 1838.78 1203.31C1851.61 1221.67 1865.4 1239.34 1881.12 1255.67C1981.17 1359.56 2148.02 1389.57 2292.15 1354.18C2436.37 1318.77 2560.58 1228.11 2665.18 1123.05" stroke="url(#paint21_linear_1_707)" stroke-width="1.56225" stroke-miterlimit="10"/>
<path opacity="0.54" d="M241.109 1551.19C235.718 1483.69 291.05 1423.93 354.906 1402.49C360.624 1400.57 366.378 1398.95 372.157 1397.57C431.48 1383.66 493.445 1394.64 552.555 1411.21C563.898 1414.39 575.195 1417.81 586.414 1421.3C639.19 1437.73 692.256 1456.07 747.388 1462.33C765.127 1464.36 782.911 1465.12 800.688 1464.35C921.846 1459.14 1031.01 1384.81 1119.53 1300.47C1125.97 1294.34 1132.33 1288.15 1138.61 1281.95C1231.52 1189.91 1318.22 1092.72 1417.59 1025.19C1465.97 992.331 1519.49 959.317 1580.71 964.372C1653.98 970.364 1715.17 1027.1 1756.72 1086.88C1785 1127.59 1807.79 1171.35 1835.09 1211.81C1847.9 1230.82 1861.72 1249.08 1877.56 1265.98C1978.28 1373.5 2148.65 1404.71 2295.41 1368.36C2442.24 1332.03 2568.29 1238.78 2674.47 1131.36" stroke="url(#paint22_linear_1_707)" stroke-width="1.56225" stroke-miterlimit="10"/>
<path opacity="0.54" d="M237.996 1569.53C232.569 1502.08 287.276 1442.17 350.947 1420.03C356.63 1418.06 362.366 1416.35 368.163 1414.94C427.381 1400.38 489.434 1410.54 548.757 1426.45C560.144 1429.51 571.477 1432.77 582.722 1436.15C635.657 1452 688.935 1469.79 744.032 1475.77C761.771 1477.68 779.521 1478.38 797.307 1477.54C918.465 1471.87 1027.24 1397.32 1115.09 1312.27C1121.48 1306.09 1127.8 1299.84 1134.02 1293.56C1226.04 1200.74 1310.74 1101.68 1408.95 1031.2C1457.65 996.252 1512.2 961.591 1574.62 966.224C1649.36 971.715 1711.57 1030.01 1753.25 1091.56C1781.61 1133.46 1804.19 1178.58 1831.44 1220.35C1844.24 1239.96 1858.09 1258.81 1874.02 1276.31C1975.4 1387.48 2149.32 1419.85 2298.7 1382.57C2448.13 1345.26 2576.04 1249.46 2683.81 1139.71" stroke="url(#paint23_linear_1_707)" stroke-width="1.56225" stroke-miterlimit="10"/>
<path opacity="0.54" d="M234.865 1587.9C229.359 1520.51 283.51 1460.45 346.926 1437.61C352.574 1435.57 358.318 1433.79 364.08 1432.33C423.149 1417.13 485.318 1426.49 544.862 1441.67C556.292 1444.6 567.67 1447.73 578.977 1450.97C632.089 1466.21 685.517 1483.49 740.623 1489.16C758.345 1490.99 776.103 1491.62 793.898 1490.7C915.101 1484.58 1023.44 1409.81 1110.63 1324.04C1116.98 1317.81 1123.22 1311.5 1129.39 1305.19C1220.52 1211.57 1303.14 1110.59 1400.27 1037.25C1449.27 1000.25 1504.89 963.932 1568.53 968.117C1644.77 973.082 1707.99 1032.97 1749.74 1096.29C1778.15 1139.37 1800.54 1185.85 1827.77 1228.95C1840.56 1249.2 1854.43 1268.64 1870.47 1286.71C1972.53 1401.51 2149.97 1435.08 2301.97 1396.84C2454.02 1358.6 2583.78 1260.22 2693.15 1148.13" stroke="url(#paint24_linear_1_707)" stroke-width="1.56225" stroke-miterlimit="10"/>
<path opacity="0.54" d="M231.753 1606.23C226.211 1538.9 279.736 1478.69 342.967 1455.15C348.624 1453.04 354.316 1451.23 360.104 1449.67C419.067 1433.82 481.325 1442.36 541.099 1456.85C552.565 1459.62 563.969 1462.66 575.32 1465.77C628.61 1480.4 682.215 1497.19 737.33 1502.56C755.034 1504.3 772.793 1504.81 790.561 1503.88C911.79 1497.31 1019.73 1422.28 1106.26 1335.84C1112.55 1329.57 1118.74 1323.23 1124.85 1316.84C1215.09 1222.44 1295.59 1119.54 1391.69 1043.28C1440.95 1004.17 1497.63 966.264 1562.51 970.019C1640.25 974.457 1704.48 1035.93 1746.32 1101C1774.81 1145.28 1797 1193.16 1824.2 1237.54C1836.98 1258.39 1850.88 1278.47 1867.02 1297.09C1969.73 1415.54 2150.73 1450.26 2305.38 1411.09C2460.04 1371.92 2591.64 1270.94 2702.61 1156.52" stroke="url(#paint25_linear_1_707)" stroke-width="1.56225" stroke-miterlimit="10"/>
<path opacity="0.54" d="M228.613 1624.56C222.992 1557.28 275.978 1496.91 338.954 1472.66C344.576 1470.49 350.277 1468.6 356.03 1466.98C414.861 1450.48 477.217 1458.24 537.221 1472.04C548.731 1474.69 560.197 1477.57 571.548 1480.57C625.015 1494.59 678.815 1510.86 733.895 1515.94C751.599 1517.57 769.348 1518.04 787.099 1517.02C908.355 1510.01 1015.88 1434.74 1101.74 1347.58C1107.97 1341.23 1114.11 1334.86 1120.19 1328.4C1209.53 1233.22 1287.86 1128.41 1382.95 1049.26C1432.46 1008.05 1490.23 968.51 1556.33 971.818C1635.56 975.755 1700.8 1038.8 1742.74 1105.61C1771.29 1151.07 1793.29 1200.31 1820.45 1246.01C1833.21 1267.46 1847.12 1288.15 1863.37 1307.35C1966.76 1429.43 2151.29 1465.33 2308.57 1425.22C2465.85 1385.09 2599.28 1281.55 2711.85 1164.8" stroke="url(#paint26_linear_1_707)" stroke-width="1.56225" stroke-miterlimit="10"/>
<path opacity="0.54" d="M225.5 1642.9C219.844 1575.68 272.204 1515.15 334.969 1490.19C340.582 1487.97 346.265 1486 351.983 1484.32C410.691 1467.19 473.136 1474.14 533.387 1487.23C544.942 1489.75 556.426 1492.49 567.839 1495.34C621.482 1508.75 675.432 1524.51 730.522 1529.29C748.208 1530.83 765.967 1531.23 783.726 1530.14C905.009 1522.69 1012.11 1447.13 1097.31 1359.31C1103.49 1352.92 1109.59 1346.48 1115.59 1339.98C1204.04 1244 1280.13 1137.28 1374.29 1055.21C1424 1011.89 1482.93 970.784 1550.25 973.644C1630.98 977.054 1697.25 1041.66 1739.27 1110.29C1767.88 1156.98 1789.68 1207.54 1816.84 1254.57C1829.58 1276.66 1843.52 1297.95 1859.89 1317.72C1963.95 1443.42 2152 1480.53 2311.9 1439.47C2471.81 1398.4 2607.08 1292.28 2721.25 1173.18" stroke="url(#paint27_linear_1_707)" stroke-width="1.56225" stroke-miterlimit="10"/>
<path opacity="0.54" d="M222.367 1661.26C216.632 1594.1 268.41 1533.42 330.972 1507.79C336.55 1505.51 342.224 1503.49 347.952 1501.74C406.528 1483.95 469.088 1490.1 529.552 1502.52C541.151 1504.92 552.697 1507.52 564.11 1510.25C617.939 1523.1 672.057 1538.32 727.129 1542.78C744.816 1544.2 762.539 1544.54 780.307 1543.38C901.609 1535.44 1008.31 1459.7 1092.83 1371.15C1098.98 1364.71 1105 1358.22 1110.94 1351.67C1198.51 1254.91 1272.32 1146.28 1365.58 1061.32C1415.48 1015.87 1475.56 973.163 1544.13 975.593C1626.35 978.477 1693.62 1044.67 1735.75 1115.04C1764.43 1162.94 1786.02 1214.85 1813.14 1263.19C1825.87 1285.88 1839.84 1307.8 1856.29 1328.13C1961.02 1457.49 2152.62 1495.74 2315.14 1453.75C2477.67 1411.73 2614.77 1303.04 2730.51 1181.6" stroke="url(#paint28_linear_1_707)" stroke-width="1.56225" stroke-miterlimit="10"/>
<path opacity="0.54" d="M219.228 1679.59C213.457 1612.48 264.636 1551.66 326.96 1525.29C332.52 1522.93 338.186 1520.87 343.878 1519.05C402.323 1500.61 464.981 1505.97 525.666 1517.67C537.3 1519.9 548.872 1522.4 560.374 1525C614.38 1537.24 668.693 1551.94 723.729 1556.11C741.399 1557.45 759.131 1557.71 776.882 1556.46C898.21 1548.08 1004.51 1472.07 1088.35 1382.84C1094.44 1376.36 1100.43 1369.81 1106.29 1363.21C1192.97 1265.66 1264.45 1155.13 1356.88 1067.24C1406.9 1019.65 1468.19 975.382 1537.97 977.364C1621.68 979.747 1689.97 1047.5 1732.19 1119.62C1760.92 1168.7 1782.33 1221.97 1809.39 1271.65C1822.13 1294.97 1836.08 1317.49 1852.65 1338.39C1958.05 1471.37 2153.18 1510.83 2318.32 1467.88C2483.46 1424.93 2622.41 1313.65 2739.75 1189.87" stroke="url(#paint29_linear_1_707)" stroke-width="1.56225" stroke-miterlimit="10"/>
<path opacity="0.54" d="M216.116 1697.93C210.292 1630.9 260.862 1569.9 323.003 1542.84C328.554 1540.43 334.175 1538.26 339.885 1536.42C398.224 1517.33 460.971 1521.88 521.869 1532.91C533.547 1535.02 545.163 1537.39 556.683 1539.85C610.866 1551.49 665.329 1565.68 720.375 1569.55C738.053 1570.81 755.741 1570.97 773.51 1569.7C894.865 1560.88 1000.75 1484.63 1083.95 1394.7C1090 1388.15 1095.91 1381.55 1101.74 1374.89C1187.54 1276.53 1256.66 1164.15 1348.25 1073.33C1398.41 1023.61 1460.91 977.744 1531.93 979.296C1617.14 981.152 1686.44 1050.5 1728.75 1124.36C1757.57 1174.64 1778.74 1229.29 1805.81 1280.28C1818.51 1304.21 1832.52 1327.34 1849.2 1348.82C1955.28 1485.43 2153.94 1526.07 2321.69 1482.19C2489.47 1438.28 2630.27 1324.45 2749.18 1198.32" stroke="url(#paint30_linear_1_707)" stroke-width="1.56225" stroke-miterlimit="10"/>
<path opacity="0.54" d="M213.004 1716.27C206.594 1643.3 266.458 1577.28 335.838 1553.75C405.2 1530.25 481.149 1540.07 552.956 1554.65C624.763 1569.23 697.095 1588.4 770.12 1582.84C900.306 1572.89 1012.23 1485.61 1097.1 1386.47C1182.01 1287.33 1248.71 1173.06 1339.54 1079.33C1389.79 1027.45 1453.55 980.052 1525.79 981.156C1612.5 982.486 1682.8 1053.42 1725.22 1129.08C1767.64 1204.74 1793.08 1290.16 1845.6 1359.19C1952.34 1499.44 2154.53 1541.26 2324.92 1496.43C2495.3 1451.59 2637.96 1335.17 2758.46 1206.71" stroke="url(#paint31_linear_1_707)" stroke-width="1.56225" stroke-miterlimit="10"/>
<defs>
<linearGradient id="paint0_linear_1_707" x1="2460.98" y1="881.667" x2="312.576" y2="1177.55" gradientUnits="userSpaceOnUse">
<stop stop-color="#7ED4EF"/>
<stop offset="0.2294" stop-color="#66BFE6"/>
<stop offset="0.711" stop-color="#298BD0"/>
<stop offset="1" stop-color="#0169C2"/>
</linearGradient>
<linearGradient id="paint1_linear_1_707" x1="2471.17" y1="896.184" x2="309.184" y2="1193.93" gradientUnits="userSpaceOnUse">
<stop stop-color="#7ED4EF"/>
<stop offset="0.2294" stop-color="#66BFE6"/>
<stop offset="0.711" stop-color="#298BD0"/>
<stop offset="1" stop-color="#0169C2"/>
</linearGradient>
<linearGradient id="paint2_linear_1_707" x1="2481.35" y1="910.701" x2="305.789" y2="1210.32" gradientUnits="userSpaceOnUse">
<stop stop-color="#7ED4EF"/>
<stop offset="0.2294" stop-color="#66BFE6"/>
<stop offset="0.711" stop-color="#298BD0"/>
<stop offset="1" stop-color="#0169C2"/>
</linearGradient>
<linearGradient id="paint3_linear_1_707" x1="2491.27" y1="923.275" x2="302.127" y2="1224.76" gradientUnits="userSpaceOnUse">
<stop stop-color="#7ED4EF"/>
<stop offset="0.2294" stop-color="#66BFE6"/>
<stop offset="0.711" stop-color="#298BD0"/>
<stop offset="1" stop-color="#0169C2"/>
</linearGradient>
<linearGradient id="paint4_linear_1_707" x1="2500.73" y1="932.532" x2="298.01" y2="1235.89" gradientUnits="userSpaceOnUse">
<stop stop-color="#7ED4EF"/>
<stop offset="0.2294" stop-color="#66BFE6"/>
<stop offset="0.711" stop-color="#298BD0"/>
<stop offset="1" stop-color="#0169C2"/>
</linearGradient>
<linearGradient id="paint5_linear_1_707" x1="2510.16" y1="941.595" x2="293.864" y2="1246.82" gradientUnits="userSpaceOnUse">
<stop stop-color="#7ED4EF"/>
<stop offset="0.2294" stop-color="#66BFE6"/>
<stop offset="0.711" stop-color="#298BD0"/>
<stop offset="1" stop-color="#0169C2"/>
</linearGradient>
<linearGradient id="paint6_linear_1_707" x1="2519.56" y1="950.445" x2="289.691" y2="1257.54" gradientUnits="userSpaceOnUse">
<stop stop-color="#7ED4EF"/>
<stop offset="0.2294" stop-color="#66BFE6"/>
<stop offset="0.711" stop-color="#298BD0"/>
<stop offset="1" stop-color="#0169C2"/>
</linearGradient>
<linearGradient id="paint7_linear_1_707" x1="2528.93" y1="959.069" x2="285.486" y2="1268.04" gradientUnits="userSpaceOnUse">
<stop stop-color="#7ED4EF"/>
<stop offset="0.2294" stop-color="#66BFE6"/>
<stop offset="0.711" stop-color="#298BD0"/>
<stop offset="1" stop-color="#0169C2"/>
</linearGradient>
<linearGradient id="paint8_linear_1_707" x1="2538.24" y1="967.205" x2="281.215" y2="1278.04" gradientUnits="userSpaceOnUse">
<stop stop-color="#7ED4EF"/>
<stop offset="0.2294" stop-color="#66BFE6"/>
<stop offset="0.711" stop-color="#298BD0"/>
<stop offset="1" stop-color="#0169C2"/>
</linearGradient>
<linearGradient id="paint9_linear_1_707" x1="2547.48" y1="974.947" x2="276.884" y2="1287.66" gradientUnits="userSpaceOnUse">
<stop stop-color="#7ED4EF"/>
<stop offset="0.2294" stop-color="#66BFE6"/>
<stop offset="0.711" stop-color="#298BD0"/>
<stop offset="1" stop-color="#0169C2"/>
</linearGradient>
<linearGradient id="paint10_linear_1_707" x1="2556.7" y1="982.441" x2="272.526" y2="1297.02" gradientUnits="userSpaceOnUse">
<stop stop-color="#7ED4EF"/>
<stop offset="0.2294" stop-color="#66BFE6"/>
<stop offset="0.711" stop-color="#298BD0"/>
<stop offset="1" stop-color="#0169C2"/>
</linearGradient>
<linearGradient id="paint11_linear_1_707" x1="2565.89" y1="989.77" x2="268.142" y2="1306.22" gradientUnits="userSpaceOnUse">
<stop stop-color="#7ED4EF"/>
<stop offset="0.2294" stop-color="#66BFE6"/>
<stop offset="0.711" stop-color="#298BD0"/>
<stop offset="1" stop-color="#0169C2"/>
</linearGradient>
<linearGradient id="paint12_linear_1_707" x1="2575.06" y1="996.978" x2="263.742" y2="1315.29" gradientUnits="userSpaceOnUse">
<stop stop-color="#7ED4EF"/>
<stop offset="0.2294" stop-color="#66BFE6"/>
<stop offset="0.711" stop-color="#298BD0"/>
<stop offset="1" stop-color="#0169C2"/>
</linearGradient>
<linearGradient id="paint13_linear_1_707" x1="2584.22" y1="1004.1" x2="259.327" y2="1324.28" gradientUnits="userSpaceOnUse">
<stop stop-color="#7ED4EF"/>
<stop offset="0.2294" stop-color="#66BFE6"/>
<stop offset="0.711" stop-color="#298BD0"/>
<stop offset="1" stop-color="#0169C2"/>
</linearGradient>
<linearGradient id="paint14_linear_1_707" x1="2593.38" y1="1011.14" x2="254.907" y2="1333.2" gradientUnits="userSpaceOnUse">
<stop stop-color="#7ED4EF"/>
<stop offset="0.2294" stop-color="#66BFE6"/>
<stop offset="0.711" stop-color="#298BD0"/>
<stop offset="1" stop-color="#0169C2"/>
</linearGradient>
<linearGradient id="paint15_linear_1_707" x1="2602.52" y1="1018.13" x2="250.477" y2="1342.06" gradientUnits="userSpaceOnUse">
<stop stop-color="#7ED4EF"/>
<stop offset="0.2294" stop-color="#66BFE6"/>
<stop offset="0.711" stop-color="#298BD0"/>
<stop offset="1" stop-color="#0169C2"/>
</linearGradient>
<linearGradient id="paint16_linear_1_707" x1="2611.66" y1="1025.08" x2="246.039" y2="1350.88" gradientUnits="userSpaceOnUse">
<stop stop-color="#7ED4EF"/>
<stop offset="0.2294" stop-color="#66BFE6"/>
<stop offset="0.711" stop-color="#298BD0"/>
<stop offset="1" stop-color="#0169C2"/>
</linearGradient>
<linearGradient id="paint17_linear_1_707" x1="2620.79" y1="1031.99" x2="241.596" y2="1359.66" gradientUnits="userSpaceOnUse">
<stop stop-color="#7ED4EF"/>
<stop offset="0.2294" stop-color="#66BFE6"/>
<stop offset="0.711" stop-color="#298BD0"/>
<stop offset="1" stop-color="#0169C2"/>
</linearGradient>
<linearGradient id="paint18_linear_1_707" x1="2629.92" y1="1038.87" x2="237.153" y2="1368.41" gradientUnits="userSpaceOnUse">
<stop stop-color="#7ED4EF"/>
<stop offset="0.2294" stop-color="#66BFE6"/>
<stop offset="0.711" stop-color="#298BD0"/>
<stop offset="1" stop-color="#0169C2"/>
</linearGradient>
<linearGradient id="paint19_linear_1_707" x1="2639.04" y1="1045.73" x2="232.704" y2="1377.14" gradientUnits="userSpaceOnUse">
<stop stop-color="#7ED4EF"/>
<stop offset="0.2294" stop-color="#66BFE6"/>
<stop offset="0.711" stop-color="#298BD0"/>
<stop offset="1" stop-color="#0169C2"/>
</linearGradient>
<linearGradient id="paint20_linear_1_707" x1="2648.16" y1="1052.57" x2="228.252" y2="1385.84" gradientUnits="userSpaceOnUse">
<stop stop-color="#7ED4EF"/>
<stop offset="0.2294" stop-color="#66BFE6"/>
<stop offset="0.711" stop-color="#298BD0"/>
<stop offset="1" stop-color="#0169C2"/>
</linearGradient>
<linearGradient id="paint21_linear_1_707" x1="2657.28" y1="1059.39" x2="223.798" y2="1394.53" gradientUnits="userSpaceOnUse">
<stop stop-color="#7ED4EF"/>
<stop offset="0.2294" stop-color="#66BFE6"/>
<stop offset="0.711" stop-color="#298BD0"/>
<stop offset="1" stop-color="#0169C2"/>
</linearGradient>
<linearGradient id="paint22_linear_1_707" x1="2666.4" y1="1066.2" x2="219.343" y2="1403.21" gradientUnits="userSpaceOnUse">
<stop stop-color="#7ED4EF"/>
<stop offset="0.2294" stop-color="#66BFE6"/>
<stop offset="0.711" stop-color="#298BD0"/>
<stop offset="1" stop-color="#0169C2"/>
</linearGradient>
<linearGradient id="paint23_linear_1_707" x1="2675.51" y1="1072.99" x2="214.884" y2="1411.87" gradientUnits="userSpaceOnUse">
<stop stop-color="#7ED4EF"/>
<stop offset="0.2294" stop-color="#66BFE6"/>
<stop offset="0.711" stop-color="#298BD0"/>
<stop offset="1" stop-color="#0169C2"/>
</linearGradient>
<linearGradient id="paint24_linear_1_707" x1="2684.63" y1="1079.77" x2="210.425" y2="1420.52" gradientUnits="userSpaceOnUse">
<stop stop-color="#7ED4EF"/>
<stop offset="0.2294" stop-color="#66BFE6"/>
<stop offset="0.711" stop-color="#298BD0"/>
<stop offset="1" stop-color="#0169C2"/>
</linearGradient>
<linearGradient id="paint25_linear_1_707" x1="2693.74" y1="1086.54" x2="205.965" y2="1429.15" gradientUnits="userSpaceOnUse">
<stop stop-color="#7ED4EF"/>
<stop offset="0.2294" stop-color="#66BFE6"/>
<stop offset="0.711" stop-color="#298BD0"/>
<stop offset="1" stop-color="#0169C2"/>
</linearGradient>
<linearGradient id="paint26_linear_1_707" x1="2702.85" y1="1093.3" x2="201.502" y2="1437.78" gradientUnits="userSpaceOnUse">
<stop stop-color="#7ED4EF"/>
<stop offset="0.2294" stop-color="#66BFE6"/>
<stop offset="0.711" stop-color="#298BD0"/>
<stop offset="1" stop-color="#0169C2"/>
</linearGradient>
<linearGradient id="paint27_linear_1_707" x1="2711.96" y1="1100.05" x2="197.04" y2="1446.41" gradientUnits="userSpaceOnUse">
<stop stop-color="#7ED4EF"/>
<stop offset="0.2294" stop-color="#66BFE6"/>
<stop offset="0.711" stop-color="#298BD0"/>
<stop offset="1" stop-color="#0169C2"/>
</linearGradient>
<linearGradient id="paint28_linear_1_707" x1="2721.06" y1="1106.8" x2="192.574" y2="1455.03" gradientUnits="userSpaceOnUse">
<stop stop-color="#7ED4EF"/>
<stop offset="0.2294" stop-color="#66BFE6"/>
<stop offset="0.711" stop-color="#298BD0"/>
<stop offset="1" stop-color="#0169C2"/>
</linearGradient>
<linearGradient id="paint29_linear_1_707" x1="2730.17" y1="1113.54" x2="188.109" y2="1463.63" gradientUnits="userSpaceOnUse">
<stop stop-color="#7ED4EF"/>
<stop offset="0.2294" stop-color="#66BFE6"/>
<stop offset="0.711" stop-color="#298BD0"/>
<stop offset="1" stop-color="#0169C2"/>
</linearGradient>
<linearGradient id="paint30_linear_1_707" x1="2739.28" y1="1120.28" x2="183.645" y2="1472.24" gradientUnits="userSpaceOnUse">
<stop stop-color="#7ED4EF"/>
<stop offset="0.2294" stop-color="#66BFE6"/>
<stop offset="0.711" stop-color="#298BD0"/>
<stop offset="1" stop-color="#0169C2"/>
</linearGradient>
<linearGradient id="paint31_linear_1_707" x1="2748.38" y1="1127.01" x2="179.18" y2="1480.84" gradientUnits="userSpaceOnUse">
<stop stop-color="#7ED4EF"/>
<stop offset="0.2294" stop-color="#66BFE6"/>
<stop offset="0.711" stop-color="#298BD0"/>
<stop offset="1" stop-color="#0169C2"/>
</linearGradient>
</defs>
</svg>
