<svg width="108" height="53" viewBox="0 0 108 53" fill="none" xmlns="http://www.w3.org/2000/svg">
<path fill-rule="evenodd" clip-rule="evenodd" d="M35 0H103.151C103.631 1.67166 105.171 2.89492 106.997 2.89492C107.343 2.89492 107.679 2.85085 108 2.76802V11.05C106.859 11.2816 106 12.2905 106 13.5C106 14.7095 106.859 15.7184 108 15.95V18.05C106.859 18.2816 106 19.2905 106 20.5C106 21.7095 106.859 22.7184 108 22.95V25.05C106.859 25.2816 106 26.2905 106 27.5C106 28.7095 106.859 29.7184 108 29.95V32.05C106.859 32.2816 106 33.2905 106 34.5C106 35.7095 106.859 36.7184 108 36.95V39.05C106.859 39.2816 106 40.2905 106 41.5C106 42.7095 106.859 43.7184 108 43.95V49.476C107.679 49.3932 107.343 49.3492 106.997 49.3492C105.261 49.3492 103.783 50.4547 103.23 52H35V0Z" fill="#2E43FF"/>
<path fill-rule="evenodd" clip-rule="evenodd" d="M34.3115 51.9998L4.92975 52.0454C4.44762 50.3745 2.90565 49.1537 1.0799 49.1565C0.733293 49.1571 0.397051 49.2017 0.0764705 49.285L0.0636106 41.003C1.20448 40.7697 2.06191 39.7595 2.06003 38.5499C2.05815 37.3403 1.19759 36.3327 0.056002 36.103L0.0527414 34.003C1.19361 33.7697 2.05104 32.7595 2.04916 31.5499C2.04729 30.3403 1.18672 29.3328 0.0451328 29.103L0.0418721 27.0031C1.18274 26.7697 2.04017 25.7595 2.03829 24.5499C2.03642 23.3404 1.17585 22.3328 0.0342635 22.103L0.0310029 20.0031C1.17187 19.7697 2.0293 18.7595 2.02743 17.5499C2.02555 16.3404 1.16498 15.3328 0.0233943 15.103L0.0201337 13.0031C1.161 12.7698 2.01843 11.7595 2.01656 10.5499C2.01468 9.34037 1.15411 8.33278 0.0125251 8.103L0.00394448 2.57694C0.324782 2.65931 0.661161 2.70287 1.00776 2.70233C2.7435 2.69964 4.2193 1.59178 4.77043 0.0455613L34.2307 -0.000183176L34.3115 51.9998Z" fill="#2E43FF"/>
<rect x="31" y="3" width="8" height="1" fill="#2E43FF"/>
<rect x="31" y="8" width="8" height="1" fill="#2E43FF"/>
<rect x="31" y="13" width="8" height="1" fill="#2E43FF"/>
<rect x="31" y="18" width="8" height="1" fill="#2E43FF"/>
<rect x="31" y="23" width="8" height="1" fill="#2E43FF"/>
<rect x="31" y="28" width="8" height="1" fill="#2E43FF"/>
<rect x="31" y="33" width="8" height="1" fill="#2E43FF"/>
<rect x="31" y="38" width="8" height="1" fill="#2E43FF"/>
<rect x="31" y="43" width="8" height="1" fill="#2E43FF"/>
<rect x="31" y="48" width="8" height="1" fill="#2E43FF"/>
</svg>
